<svg width="667" height="192" viewBox="0 0 667 192" fill="none" xmlns="http://www.w3.org/2000/svg">
<path d="M4.48972e-05 189.098V7.27983H64.8083C78.8945 7.27983 90.5836 9.70644 99.8758 14.5597C109.227 19.4129 116.211 26.1304 120.827 34.7124C125.444 43.2351 127.752 53.0895 127.752 64.2756C127.752 75.4025 125.414 85.1977 120.739 93.6612C116.122 102.066 109.138 108.606 99.787 113.281C90.4948 117.957 78.8057 120.295 64.7195 120.295H15.625V96.6797H62.2337C71.1116 96.6797 78.3322 95.4072 83.8956 92.8622C89.5183 90.3172 93.6317 86.6181 96.2358 81.7649C98.84 76.9117 100.142 71.0819 100.142 64.2756C100.142 57.41 98.8104 51.4619 96.1471 46.4311C93.5429 41.4003 89.4295 37.5533 83.8069 34.8899C78.2434 32.1674 70.934 30.8061 61.8786 30.8061H27.4326V189.098H4.48972e-05ZM89.755 107.067L134.677 189.098H103.427L59.3928 107.067H89.755ZM159.002 189.098V52.7344H185.547V189.098H159.002ZM172.408 31.6939C167.791 31.6939 163.826 30.1551 160.511 27.0774C157.256 23.9406 155.629 20.2119 155.629 15.8913C155.629 11.5116 157.256 7.78291 160.511 4.70525C163.826 1.56842 167.791 -5.96046e-07 172.408 -5.96046e-07C177.024 -5.96046e-07 180.96 1.56842 184.215 4.70525C187.53 7.78291 189.187 11.5116 189.187 15.8913C189.187 20.2119 187.53 23.9406 184.215 27.0774C180.96 30.1551 177.024 31.6939 172.408 31.6939ZM272.306 191.761C261.297 191.761 251.472 188.95 242.831 183.327C234.249 177.646 227.502 169.567 222.59 159.091C217.736 148.556 215.31 135.92 215.31 121.183C215.31 106.445 217.766 93.8388 222.678 83.3629C227.65 72.8871 234.456 64.8674 243.098 59.304C251.739 53.7405 261.534 50.9588 272.483 50.9588C280.947 50.9588 287.753 52.3793 292.902 55.2202C298.111 58.0019 302.135 61.2571 304.976 64.9858C307.876 68.7145 310.125 71.9993 311.723 74.8402H313.321V7.27983H339.866V189.098H313.943V167.88H311.723C310.125 170.78 307.817 174.094 304.799 177.823C301.839 181.552 297.755 184.807 292.547 187.589C287.339 190.371 280.592 191.761 272.306 191.761ZM278.165 169.123C285.8 169.123 292.251 167.111 297.519 163.086C302.845 159.002 306.87 153.35 309.593 146.129C312.374 138.909 313.765 130.504 313.765 120.916C313.765 111.446 312.404 103.161 309.681 96.0582C306.959 88.956 302.964 83.4221 297.696 79.4567C292.429 75.4912 285.918 73.5085 278.165 73.5085C270.175 73.5085 263.517 75.58 258.19 79.723C252.863 83.866 248.839 89.5182 246.116 96.6797C243.453 103.841 242.121 111.92 242.121 120.916C242.121 130.031 243.482 138.228 246.205 145.508C248.927 152.788 252.952 158.558 258.279 162.82C263.665 167.022 270.293 169.123 278.165 169.123ZM436.523 191.85C423.088 191.85 411.518 188.98 401.811 183.239C392.164 177.438 384.706 169.3 379.439 158.825C374.231 148.29 371.626 135.949 371.626 121.804C371.626 107.836 374.231 95.5256 379.439 84.8722C384.706 74.2187 392.045 65.9032 401.456 59.9254C410.926 53.9477 421.993 50.9588 434.659 50.9588C442.353 50.9588 449.811 52.2313 457.031 54.7763C464.252 57.3213 470.733 61.3163 476.474 66.7614C482.215 72.2064 486.742 79.2791 490.057 87.9794C493.371 96.6205 495.028 107.126 495.028 119.496V128.906H386.63V109.02H469.016C469.016 102.036 467.596 95.8511 464.755 90.4652C461.914 85.0201 457.919 80.7292 452.77 77.5923C447.68 74.4555 441.702 72.8871 434.837 72.8871C427.379 72.8871 420.869 74.7218 415.305 78.3913C409.801 82.0017 405.54 86.7365 402.521 92.5959C399.562 98.3961 398.082 104.699 398.082 111.506V127.042C398.082 136.156 399.68 143.91 402.876 150.302C406.132 156.694 410.659 161.577 416.46 164.95C422.26 168.265 429.037 169.922 436.79 169.922C441.821 169.922 446.407 169.212 450.55 167.791C454.693 166.312 458.274 164.122 461.293 161.222C464.311 158.321 466.619 154.741 468.217 150.479L493.342 155.007C491.329 162.405 487.719 168.886 482.511 174.45C477.362 179.954 470.881 184.245 463.068 187.322C455.315 190.341 446.467 191.85 436.523 191.85ZM545.699 7.27983L589.2 78.3913H590.621L634.122 7.27983H665.905L609.264 98.1889L666.26 189.098H634.3L590.621 118.963H589.2L545.521 189.098H513.561L571.533 98.1889L513.916 7.27983H545.699Z" fill="black"/>
</svg>
